<?xml version="1.0" standalone="no"?>
<!DOCTYPE svg PUBLIC "-//W3C//DTD SVG 20010904//EN"
 "http://www.w3.org/TR/2001/REC-SVG-20010904/DTD/svg10.dtd">
<svg version="1.0" xmlns="http://www.w3.org/2000/svg"
 width="394.000000pt" height="373.000000pt" viewBox="0 0 394.000000 373.000000"
 preserveAspectRatio="xMidYMid meet">

<g transform="translate(0.000000,373.000000) scale(0.100000,-0.100000)"
fill="#ffffff" stroke="none">
<path d="M1735 3025 c-272 -44 -518 -184 -677 -383 -168 -212 -248 -447 -248
-730 0 -217 35 -373 121 -546 107 -214 266 -369 492 -476 246 -118 552 -145
892 -80 127 25 329 89 400 128 l50 27 5 295 5 295 175 5 175 5 3 128 3 127
-181 0 -180 0 0 145 0 145 -140 0 -140 0 0 -145 0 -145 -165 0 c-212 0 -205 5
-205 -150 l0 -110 180 0 180 0 -2 -202 -3 -203 -48 -22 c-107 -51 -281 -83
-460 -83 -193 0 -330 38 -473 131 -241 157 -377 420 -377 729 0 347 168 635
447 770 129 62 219 82 366 82 228 -1 400 -60 566 -197 l31 -25 102 109 101
109 -54 49 c-106 95 -261 170 -426 203 -139 28 -388 35 -515 15z"/>
</g>
</svg>
